<svg width="1000" height="1000" viewBox="0 0 1000 1000" fill="none" xmlns="http://www.w3.org/2000/svg">
<rect width="1000" height="1000" fill="white"/>
<path d="M279.261 480.136C279.261 487.643 285.267 493.649 292.774 493.649H368.748L375.354 466.472H292.774C285.417 466.472 279.261 472.628 279.261 480.136ZM353.433 689.139C353.433 728.777 322.052 761.208 282.864 763.01C274.006 763.01 265.147 761.659 256.589 758.506C230.313 748.746 211.545 725.173 208.392 695.144C207.191 684.334 209.443 673.523 213.047 663.464L213.197 663.163C261.243 529.684 264.246 383.592 222.356 248.461H540.815C540.965 248.761 540.965 249.061 541.115 249.362C550.274 243.506 560.033 237.8 570.093 232.395C571.595 228.341 572.796 225.338 574.447 221.284L569.643 207.771H165C217.551 353.713 230.914 493.499 174.759 649.35C164.099 678.028 165.3 709.108 178.063 736.885C190.825 764.812 213.647 785.982 242.325 796.643C254.337 801.147 266.949 803.399 279.411 803.85V804H281.663C281.964 804 282.114 804 282.414 804C282.564 804 282.864 804 283.015 804H553.277C616.638 804 667.988 752.65 667.988 689.289V672.172H353.433V689.139ZM401.48 397.555H292.924C285.417 397.555 279.411 403.561 279.411 411.069C279.411 418.576 285.417 424.582 292.924 424.582H389.168C392.471 416.023 396.675 407.015 401.48 397.555ZM564.238 538.843C560.033 565.268 554.178 591.544 546.52 617.219H588.861C597.119 587.49 603.125 557.31 607.179 526.831C593.066 531.786 578.802 535.69 564.238 538.843ZM448.325 328.488H279.261C271.754 328.488 265.748 334.494 265.748 342.002C265.748 349.509 271.754 355.515 279.261 355.515H427.004C433.31 346.656 440.517 337.497 448.325 328.488Z" fill="#717171"/>
<path d="M872.21 195.033C809.449 200.138 755.397 209.898 708.552 222.96C704.798 232.57 700.594 242.029 695.489 250.887C692.486 255.842 689.333 260.647 685.88 265.151C682.276 269.656 678.522 273.86 673.868 277.763L669.814 274.01C672.066 269.806 673.868 264.701 675.369 259.746C676.721 254.791 677.772 249.686 678.522 244.581C679.123 240.227 679.573 235.873 679.724 231.519C481.081 296.231 428.38 421.453 414.416 478.208C449.25 445.026 486.636 414.997 525.524 387.22C567.415 357.791 610.657 330.615 656.151 307.492C678.973 295.931 701.945 285.121 725.818 275.812C749.391 266.202 773.565 257.644 798.639 251.488C779.721 265.752 760.652 279.115 741.433 292.328C722.365 300.586 703.447 309.444 684.979 318.753C641.887 340.374 600.447 365.599 560.358 392.625C520.269 419.651 481.681 449.38 445.797 482.112C410.212 515.144 376.579 551.479 351.055 593.22C349.103 596.373 349.553 600.727 352.556 603.43C355.859 606.432 360.964 606.132 363.817 602.829C393.095 569.947 425.827 540.669 460.211 513.342C590.987 521 688.132 461.242 756.148 391.274C747.139 388.421 737.98 385.718 728.671 383.466C720.563 381.664 712.455 380.163 704.347 378.962C696.089 377.911 687.681 377.16 679.724 377.61L678.673 372.355C687.231 369.803 695.789 368.451 704.498 367.25C713.206 366.199 721.915 365.749 730.623 365.449C746.238 365.148 762.003 366.049 777.619 367.701C784.225 360.193 790.531 352.536 796.387 345.029C791.132 342.777 785.726 340.825 780.021 339.323C775.366 338.122 770.412 337.071 765.607 336.47C760.652 336.02 755.547 335.72 750.893 336.32L748.941 331.215C754.046 328.212 759.151 326.411 764.556 324.759C769.961 323.107 775.517 322.056 781.072 321.156C792.183 319.504 803.444 319.354 814.705 320.105C850.139 269.505 871.159 223.561 879.417 203.892C881.67 198.787 878.366 194.583 872.21 195.033Z" fill="#F3A79F"/>
</svg>
