<svg width="1000" height="1000" viewBox="0 0 1000 1000" fill="none" xmlns="http://www.w3.org/2000/svg">
<g clip-path="url(#clip0_1006_32)">
<rect width="1000" height="1000" fill="white"/>
<g filter="url(#filter0_d_1006_32)">
<rect x="35" y="35" width="930" height="930" rx="180" fill="white"/>
</g>
<path d="M366.054 460.755C366.054 466.278 370.472 470.696 375.995 470.696H431.883L436.743 450.704H375.995C370.583 450.704 366.054 455.232 366.054 460.755ZM420.617 614.504C420.617 643.664 397.533 667.521 368.705 668.847C362.188 668.847 355.672 667.853 349.376 665.533C330.047 658.354 316.24 641.013 313.921 618.922C313.037 610.97 314.694 603.017 317.345 595.617L317.455 595.396C352.8 497.204 355.009 389.734 324.193 290.328H558.461C558.572 290.548 558.572 290.769 558.682 290.99C565.42 286.683 572.599 282.485 580 278.509C581.104 275.527 581.988 273.318 583.203 270.336L579.668 260.395H282C320.658 367.754 330.488 470.585 289.179 585.234C281.337 606.331 282.221 629.194 291.609 649.628C300.998 670.172 317.786 685.746 338.883 693.588C347.719 696.901 356.997 698.558 366.164 698.89V699H367.821C368.042 699 368.153 699 368.373 699C368.484 699 368.705 699 368.815 699H567.629C614.24 699 652.014 661.225 652.014 614.615V602.023H420.617V614.504ZM455.962 400.006H376.105C370.583 400.006 366.164 404.424 366.164 409.947C366.164 415.47 370.583 419.888 376.105 419.888H446.905C449.335 413.592 452.427 406.965 455.962 400.006ZM575.692 503.942C572.599 523.381 568.292 542.71 562.659 561.598H593.806C599.881 539.728 604.299 517.527 607.281 495.106C596.899 498.75 586.406 501.622 575.692 503.942ZM490.423 349.198H366.054C360.531 349.198 356.113 353.617 356.113 359.139C356.113 364.662 360.531 369.08 366.054 369.08H474.739C479.378 362.563 484.679 355.826 490.423 349.198Z" fill="#717171"/>
<path d="M802.247 251.024C756.078 254.78 716.315 261.959 681.854 271.568C679.093 278.637 676 285.596 672.245 292.113C670.036 295.757 667.716 299.292 665.176 302.605C662.525 305.919 659.764 309.012 656.34 311.883L653.357 309.122C655.014 306.029 656.34 302.274 657.444 298.629C658.438 294.984 659.211 291.229 659.764 287.474C660.205 284.27 660.537 281.067 660.647 277.864C514.519 325.469 475.751 417.586 465.478 459.337C491.103 434.927 518.606 412.837 547.213 392.403C578.029 370.754 609.839 350.763 643.306 333.753C660.095 325.248 676.994 317.296 694.556 310.448C711.897 303.379 729.68 297.083 748.125 292.554C734.208 303.047 720.181 312.878 706.043 322.597C692.016 328.672 678.099 335.189 664.513 342.037C632.813 357.942 602.329 376.498 572.838 396.379C543.347 416.261 514.961 438.13 488.563 462.209C462.386 486.508 437.645 513.238 418.868 543.943C417.432 546.263 417.763 549.466 419.972 551.454C422.402 553.663 426.158 553.442 428.256 551.012C449.794 526.823 473.873 505.285 499.166 485.183C595.37 490.816 666.833 446.856 716.867 395.385C710.24 393.287 703.503 391.298 696.655 389.642C690.69 388.316 684.726 387.212 678.761 386.328C672.686 385.555 666.501 385.003 660.647 385.334L659.874 381.468C666.17 379.591 672.466 378.596 678.872 377.713C685.278 376.94 691.684 376.608 698.09 376.387C709.577 376.167 721.175 376.829 732.662 378.044C737.522 372.522 742.161 366.889 746.468 361.366C742.603 359.709 738.626 358.273 734.429 357.169C731.005 356.285 727.36 355.512 723.826 355.07C720.181 354.739 716.426 354.518 713.001 354.96L711.566 351.204C715.321 348.995 719.076 347.67 723.053 346.455C727.029 345.24 731.116 344.467 735.202 343.804C743.376 342.589 751.66 342.479 759.944 343.031C786.01 305.809 801.474 272.01 807.548 257.541C809.205 253.786 806.775 250.693 802.247 251.024Z" fill="#F3A79F"/>
</g>
<defs>
<filter id="filter0_d_1006_32" x="3" y="13" width="994" height="994" filterUnits="userSpaceOnUse" color-interpolation-filters="sRGB">
<feFlood flood-opacity="0" result="BackgroundImageFix"/>
<feColorMatrix in="SourceAlpha" type="matrix" values="0 0 0 0 0 0 0 0 0 0 0 0 0 0 0 0 0 0 127 0" result="hardAlpha"/>
<feMorphology radius="2" operator="dilate" in="SourceAlpha" result="effect1_dropShadow_1006_32"/>
<feOffset dy="10"/>
<feGaussianBlur stdDeviation="15"/>
<feComposite in2="hardAlpha" operator="out"/>
<feColorMatrix type="matrix" values="0 0 0 0 0 0 0 0 0 0 0 0 0 0 0 0 0 0 0.2 0"/>
<feBlend mode="normal" in2="BackgroundImageFix" result="effect1_dropShadow_1006_32"/>
<feBlend mode="normal" in="SourceGraphic" in2="effect1_dropShadow_1006_32" result="shape"/>
</filter>
<clipPath id="clip0_1006_32">
<rect width="1000" height="1000" fill="white"/>
</clipPath>
</defs>
</svg>
