<svg xmlns="http://www.w3.org/2000/svg" version="1.1" xmlns:xlink="http://www.w3.org/1999/xlink" xmlns:svgjs="http://svgjs.dev/svgjs" width="716" height="609"><svg width="716" height="609" viewBox="0 0 716 609" fill="none" xmlns="http://www.w3.org/2000/svg">
<path d="M114.261 285.136C114.261 292.643 120.267 298.649 127.774 298.649H203.748L210.354 271.472H127.774C120.417 271.472 114.261 277.628 114.261 285.136ZM188.433 494.139C188.433 533.777 157.052 566.208 117.864 568.01C109.006 568.01 100.147 566.659 91.5889 563.506C65.3134 553.746 46.5452 530.173 43.3921 500.144C42.191 489.334 44.4431 478.523 48.0466 468.464L48.1968 468.163C96.2434 334.684 99.2463 188.592 57.3557 53.4607H375.815C375.965 53.761 375.965 54.0613 376.115 54.3616C385.274 48.5059 395.033 42.8004 405.093 37.3951C406.595 33.3412 407.796 30.3383 409.447 26.2844L404.643 12.7712H0C52.551 158.713 65.914 298.499 9.75947 454.35C-0.900874 483.028 0.300292 514.108 13.0627 541.885C25.8251 569.812 48.6472 590.982 77.3251 601.643C89.3367 606.147 101.949 608.399 114.411 608.85V609H116.663C116.964 609 117.114 609 117.414 609C117.564 609 117.864 609 118.015 609H388.277C451.638 609 502.988 557.65 502.988 494.289V477.172H188.433V494.139ZM236.48 202.555H127.924C120.417 202.555 114.411 208.561 114.411 216.069C114.411 223.576 120.417 229.582 127.924 229.582H224.168C227.471 221.023 231.675 212.015 236.48 202.555ZM399.238 343.843C395.033 370.268 389.178 396.544 381.52 422.219H423.861C432.119 392.49 438.125 362.31 442.179 331.831C428.066 336.786 413.802 340.69 399.238 343.843ZM283.325 133.488H114.261C106.754 133.488 100.748 139.494 100.748 147.002C100.748 154.509 106.754 160.515 114.261 160.515H262.004C268.31 151.656 275.517 142.497 283.325 133.488Z" fill="#717171"></path>
<path d="M707.21 0.0331312C644.449 5.13809 590.397 14.8976 543.552 27.9602C539.798 37.5696 535.594 47.0287 530.489 55.8873C527.486 60.8422 524.333 65.6468 520.88 70.1512C517.276 74.6556 513.522 78.8597 508.868 82.7634L504.814 79.0098C507.066 74.8057 508.868 69.7008 510.369 64.7459C511.721 59.7911 512.772 54.6862 513.522 49.5812C514.123 45.227 514.573 40.8728 514.724 36.5185C316.081 101.231 263.38 226.453 249.416 283.208C284.25 250.026 321.636 219.997 360.524 192.22C402.415 162.791 445.657 135.615 491.151 112.492C513.973 100.931 536.945 90.1206 560.818 80.8115C584.391 71.2022 608.565 62.6439 633.639 56.4879C614.721 70.7518 595.652 84.1147 576.433 97.3276C557.365 105.586 538.447 114.444 519.979 123.753C476.887 145.374 435.447 170.599 395.358 197.625C355.269 224.651 316.681 254.38 280.797 287.112C245.212 320.144 211.579 356.479 186.055 398.22C184.103 401.373 184.553 405.727 187.556 408.43C190.859 411.432 195.964 411.132 198.817 407.829C228.095 374.947 260.827 345.669 295.211 318.342C425.987 326 523.132 266.242 591.148 196.274C582.139 193.421 572.98 190.718 563.671 188.466C555.563 186.664 547.455 185.163 539.347 183.962C531.089 182.911 522.681 182.16 514.724 182.61L513.673 177.355C522.231 174.803 530.789 173.451 539.498 172.25C548.206 171.199 556.915 170.749 565.623 170.449C581.238 170.148 597.003 171.049 612.619 172.701C619.225 165.193 625.531 157.536 631.387 150.029C626.132 147.777 620.726 145.825 615.021 144.323C610.366 143.122 605.412 142.071 600.607 141.47C595.652 141.02 590.547 140.72 585.893 141.32L583.941 136.215C589.046 133.212 594.151 131.411 599.556 129.759C604.961 128.107 610.517 127.056 616.072 126.156C627.183 124.504 638.444 124.354 649.705 125.105C685.139 74.5054 706.159 28.5608 714.417 8.89173C716.67 3.78677 713.366 -0.417306 707.21 0.0331312Z" fill="#F3A79F"></path>
</svg><style>@media (prefers-color-scheme: light) { :root { filter: none; } }
@media (prefers-color-scheme: dark) { :root { filter: none; } }
</style></svg>